<?xml version="1.0" encoding="UTF-8" standalone="no"?>
<!DOCTYPE svg PUBLIC "-//W3C//DTD SVG 1.1//EN"
 "http://www.w3.org/Graphics/SVG/1.1/DTD/svg11.dtd">
<!-- Generated by graphviz version 2.26.3 (20100126.1600)
 -->
<!-- Title: pipeline Pages: 1 -->
<svg width="696pt" height="644pt"
 viewBox="0.00 0.00 696.00 644.00" xmlns="http://www.w3.org/2000/svg" xmlns:xlink="http://www.w3.org/1999/xlink">
<g id="graph1" class="graph" transform="scale(1 1) rotate(0) translate(4 640)">
<title>pipeline</title>
<polygon fill="white" stroke="white" points="-4,5 -4,-640 693,-640 693,5 -4,5"/>
<!-- application -->
<g id="node1" class="node"><title>application</title>
<polygon fill="#ffdddd" stroke="black" points="569,-636 505,-636 505,-600 569,-600 569,-636"/>
<text text-anchor="middle" x="537" y="-615.9" font-family="Bitstream Vera Sans" font-size="9.00">application</text>
</g>
<!-- bus -->
<g id="node3" class="node"><title>bus</title>
<a xlink:href="GstBus.html" xlink:title="bus" target="_top">
<polygon fill="#eeeeee" stroke="black" points="123,-472 69,-472 69,-436 123,-436 123,-472"/>
<text text-anchor="middle" x="96" y="-451.9" font-family="Bitstream Vera Sans" font-size="9.00">bus</text>
</a>
</g>
<!-- application&#45;&gt;bus -->
<g id="edge48" class="edge"><title>application&#45;&gt;bus</title>
<path fill="none" stroke="black" d="M504.909,-614.823C426.098,-606.65 225.093,-583.458 165,-554 133.081,-538.354 123.719,-530.816 106,-500 102.92,-494.644 100.788,-488.441 99.311,-482.357"/>
<polygon fill="black" stroke="black" points="102.722,-481.559 97.394,-472.402 95.8481,-482.883 102.722,-481.559"/>
<text text-anchor="middle" x="180" y="-534.7" font-family="Bitstream Vera Sans" font-size="7.00">listen on</text>
</g>
<!-- event -->
<g id="node9" class="node"><title>event</title>
<a xlink:href="gstreamer-GstEvent.html" xlink:title="event" target="_top">
<polygon fill="#ddffdd" stroke="black" points="586,-308 532,-308 532,-272 586,-272 586,-308"/>
<text text-anchor="middle" x="559" y="-287.9" font-family="Bitstream Vera Sans" font-size="9.00">event</text>
</a>
</g>
<!-- application&#45;&gt;event -->
<g id="edge52" class="edge"><title>application&#45;&gt;event</title>
<path fill="none" stroke="black" d="M569.328,-602.256C592.633,-588.394 620,-565.776 620,-536 620,-536 620,-536 620,-372 620,-350.63 618.177,-343.561 606,-326 602.623,-321.13 598.383,-316.628 593.841,-312.574"/>
<polygon fill="black" stroke="black" points="595.971,-309.796 586.008,-306.191 591.549,-315.222 595.971,-309.796"/>
<text text-anchor="middle" x="628" y="-452.7" font-family="Bitstream Vera Sans" font-size="7.00">send</text>
</g>
<!-- pipeline -->
<g id="node13" class="node"><title>pipeline</title>
<a xlink:href="GstPipeline.html" xlink:title="pipeline" target="_top">
<polygon fill="#ccccff" stroke="black" points="258,-554 204,-554 204,-518 258,-518 258,-554"/>
<text text-anchor="middle" x="231" y="-533.9" font-family="Bitstream Vera Sans" font-size="9.00">pipeline</text>
</a>
</g>
<!-- application&#45;&gt;pipeline -->
<g id="edge46" class="edge"><title>application&#45;&gt;pipeline</title>
<path fill="none" stroke="black" d="M504.831,-609.38C447.68,-594.064 328.772,-562.2 268.2,-545.969"/>
<polygon fill="black" stroke="black" points="268.861,-542.522 258.296,-543.315 267.05,-549.284 268.861,-542.522"/>
<text text-anchor="middle" x="409" y="-575.7" font-family="Bitstream Vera Sans" font-size="7.00">has</text>
</g>
<!-- query -->
<g id="node16" class="node"><title>query</title>
<a xlink:href="gstreamer-GstQuery.html" xlink:title="query" target="_top">
<polygon fill="#ddffdd" stroke="black" points="678,-308 624,-308 624,-272 678,-272 678,-308"/>
<text text-anchor="middle" x="651" y="-287.9" font-family="Bitstream Vera Sans" font-size="9.00">query</text>
</a>
</g>
<!-- application&#45;&gt;query -->
<g id="edge50" class="edge"><title>application&#45;&gt;query</title>
<path fill="none" stroke="black" d="M569.336,-612.909C609.274,-604.568 672,-583.852 672,-536 672,-536 672,-536 672,-372 672,-353.556 666.952,-333.487 661.807,-317.82"/>
<polygon fill="black" stroke="black" points="665.058,-316.514 658.463,-308.222 658.447,-318.817 665.058,-316.514"/>
<text text-anchor="middle" x="680" y="-452.7" font-family="Bitstream Vera Sans" font-size="7.00">send</text>
</g>
<!-- bin -->
<g id="node2" class="node"><title>bin</title>
<a xlink:href="GstBin.html" xlink:title="bin" target="_top">
<polygon fill="#ccccff" stroke="black" points="344,-472 290,-472 290,-436 344,-436 344,-472"/>
<text text-anchor="middle" x="317" y="-451.9" font-family="Bitstream Vera Sans" font-size="9.00">bin</text>
</a>
</g>
<!-- element -->
<g id="node7" class="node"><title>element</title>
<a xlink:href="GstElement.html" xlink:title="element" target="_top">
<polygon fill="#ccccff" stroke="black" points="379,-390 325,-390 325,-354 379,-354 379,-390"/>
<text text-anchor="middle" x="352" y="-369.9" font-family="Bitstream Vera Sans" font-size="9.00">element</text>
</a>
</g>
<!-- bin&#45;&gt;element -->
<g id="edge2" class="edge"><title>bin&#45;&gt;element</title>
<path fill="none" stroke="black" d="M314.44,-435.912C313.931,-427.175 314.423,-416.721 318,-408 319.421,-404.535 321.343,-401.207 323.555,-398.07"/>
<polygon fill="black" stroke="black" points="326.328,-400.207 329.938,-390.246 320.904,-395.782 326.328,-400.207"/>
<text text-anchor="middle" x="324" y="-411.7" font-family="Bitstream Vera Sans" font-size="7.00">is&#45;a</text>
</g>
<!-- bin&#45;&gt;element -->
<g id="edge24" class="edge"><title>bin&#45;&gt;element</title>
<path fill="none" stroke="black" d="M324.768,-435.802C329.299,-425.185 335.107,-411.578 340.194,-399.66"/>
<polygon fill="black" stroke="black" points="343.547,-400.719 344.254,-390.148 337.109,-397.971 343.547,-400.719"/>
<text text-anchor="middle" x="346.5" y="-411.7" font-family="Bitstream Vera Sans" font-size="7.00">has n</text>
</g>
<!-- message -->
<g id="node10" class="node"><title>message</title>
<a xlink:href="gstreamer-GstMessage.html" xlink:title="message" target="_top">
<polygon fill="#ddffdd" stroke="black" points="130,-308 72,-308 72,-272 130,-272 130,-308"/>
<text text-anchor="middle" x="101" y="-287.9" font-family="Bitstream Vera Sans" font-size="9.00">message</text>
</a>
</g>
<!-- bus&#45;&gt;message -->
<g id="edge38" class="edge"><title>bus&#45;&gt;message</title>
<path fill="none" stroke="black" d="M96.5542,-435.823C97.4214,-407.377 99.1062,-352.115 100.134,-318.39"/>
<polygon fill="black" stroke="black" points="103.637,-318.361 100.443,-308.259 96.6401,-318.148 103.637,-318.361"/>
<text text-anchor="middle" x="111.5" y="-370.7" font-family="Bitstream Vera Sans" font-size="7.00">receive</text>
</g>
<!-- buffer -->
<g id="node4" class="node"><title>buffer</title>
<a xlink:href="gstreamer-GstBuffer.html" xlink:title="buffer" target="_top">
<polygon fill="#ddffdd" stroke="black" points="519,-254 465,-254 465,-218 519,-218 519,-254"/>
<text text-anchor="middle" x="492" y="-233.9" font-family="Bitstream Vera Sans" font-size="9.00">buffer</text>
</a>
</g>
<!-- caps -->
<g id="node5" class="node"><title>caps</title>
<a xlink:href="gstreamer-GstCaps.html" xlink:title="caps" target="_top">
<polygon fill="#eeeeee" stroke="black" points="471,-118 417,-118 417,-82 471,-82 471,-118"/>
<text text-anchor="middle" x="444" y="-97.9" font-family="Bitstream Vera Sans" font-size="9.00">caps</text>
</a>
</g>
<!-- buffer&#45;&gt;caps -->
<g id="edge20" class="edge"><title>buffer&#45;&gt;caps</title>
<path fill="none" stroke="black" d="M486.091,-217.853C479.486,-197.753 468.355,-164.429 458,-136 457.01,-133.283 455.957,-130.459 454.889,-127.643"/>
<polygon fill="black" stroke="black" points="458.134,-126.331 451.276,-118.256 451.602,-128.846 458.134,-126.331"/>
<text text-anchor="middle" x="489.5" y="-180.7" font-family="Bitstream Vera Sans" font-size="7.00">has n</text>
</g>
<!-- structure -->
<g id="node18" class="node"><title>structure</title>
<a xlink:href="gstreamer-GstStructure.html" xlink:title="structure" target="_top">
<polygon fill="#eeeeee" stroke="black" points="472,-36 416,-36 416,-1.77636e-14 472,-3.55271e-15 472,-36"/>
<text text-anchor="middle" x="444" y="-15.9" font-family="Bitstream Vera Sans" font-size="9.00">structure</text>
</a>
</g>
<!-- caps&#45;&gt;structure -->
<g id="edge22" class="edge"><title>caps&#45;&gt;structure</title>
<path fill="none" stroke="black" d="M444,-81.8015C444,-71.3976 444,-58.1215 444,-46.3768"/>
<polygon fill="black" stroke="black" points="447.5,-46.1476 444,-36.1476 440.5,-46.1476 447.5,-46.1476"/>
<text text-anchor="middle" x="453.5" y="-57.7" font-family="Bitstream Vera Sans" font-size="7.00">has n</text>
</g>
<!-- clock -->
<g id="node6" class="node"><title>clock</title>
<a xlink:href="GstClock.html" xlink:title="clock" target="_top">
<polygon fill="#eeeeee" stroke="black" points="202,-308 148,-308 148,-272 202,-272 202,-308"/>
<text text-anchor="middle" x="175" y="-287.9" font-family="Bitstream Vera Sans" font-size="9.00">clock</text>
</a>
</g>
<!-- element&#45;&gt;buffer -->
<g id="edge34" class="edge"><title>element&#45;&gt;buffer</title>
<path fill="none" stroke="black" d="M379.22,-354.748C402.413,-339.747 433.592,-318.776 444,-308 456.928,-294.616 468.583,-277.327 477.171,-263.046"/>
<polygon fill="black" stroke="black" points="480.335,-264.568 482.353,-254.167 474.289,-261.039 480.335,-264.568"/>
<text text-anchor="middle" x="448" y="-329.7" font-family="Bitstream Vera Sans" font-size="7.00">send &amp; receive</text>
</g>
<!-- element&#45;&gt;clock -->
<g id="edge14" class="edge"><title>element&#45;&gt;clock</title>
<path fill="none" stroke="black" d="M324.856,-367.156C299.52,-361.902 261.193,-352.043 231,-336 220.452,-330.395 210.026,-322.621 201.082,-315.057"/>
<polygon fill="black" stroke="black" points="203.145,-312.211 193.323,-308.239 198.524,-317.469 203.145,-312.211"/>
<text text-anchor="middle" x="253" y="-329.7" font-family="Bitstream Vera Sans" font-size="7.00">may provide</text>
</g>
<!-- element_factory -->
<g id="node8" class="node"><title>element_factory</title>
<a xlink:href="GstElementFactory.html" xlink:title="element factory" target="_top">
<polygon fill="#eeeeee" stroke="black" points="308,-308 220,-308 220,-272 308,-272 308,-308"/>
<text text-anchor="middle" x="264" y="-287.9" font-family="Bitstream Vera Sans" font-size="9.00">element factory</text>
</a>
</g>
<!-- element&#45;&gt;element_factory -->
<g id="edge28" class="edge"><title>element&#45;&gt;element_factory</title>
<path fill="none" stroke="black" d="M324.707,-361.789C311.699,-355.843 296.687,-347.271 286,-336 281.007,-330.734 276.957,-324.125 273.756,-317.572"/>
<polygon fill="black" stroke="black" points="276.866,-315.946 269.665,-308.174 270.448,-318.74 276.866,-315.946"/>
<text text-anchor="middle" x="312" y="-329.7" font-family="Bitstream Vera Sans" font-size="7.00">is created from</text>
</g>
<!-- element&#45;&gt;event -->
<g id="edge32" class="edge"><title>element&#45;&gt;event</title>
<path fill="none" stroke="black" d="M379.147,-366.467C405.53,-360.606 446.416,-350.228 480,-336 494.604,-329.813 509.846,-321.446 523.001,-313.544"/>
<polygon fill="black" stroke="black" points="525.049,-316.394 531.742,-308.181 521.388,-310.428 525.049,-316.394"/>
<text text-anchor="middle" x="527" y="-329.7" font-family="Bitstream Vera Sans" font-size="7.00">send &amp; receive</text>
</g>
<!-- element&#45;&gt;message -->
<g id="edge36" class="edge"><title>element&#45;&gt;message</title>
<path fill="none" stroke="black" d="M324.984,-367.665C293.461,-362.176 240.04,-351.523 196,-336 176.751,-329.216 156.27,-319.628 139.272,-310.96"/>
<polygon fill="black" stroke="black" points="140.705,-307.761 130.217,-306.263 137.482,-313.974 140.705,-307.761"/>
<text text-anchor="middle" x="204" y="-329.7" font-family="Bitstream Vera Sans" font-size="7.00">send</text>
</g>
<!-- pad -->
<g id="node11" class="node"><title>pad</title>
<a xlink:href="GstPad.html" xlink:title="pad" target="_top">
<polygon fill="#ccccff" stroke="black" points="435,-308 381,-308 381,-272 435,-272 435,-308"/>
<text text-anchor="middle" x="408" y="-287.9" font-family="Bitstream Vera Sans" font-size="9.00">pad</text>
</a>
</g>
<!-- element&#45;&gt;pad -->
<g id="edge12" class="edge"><title>element&#45;&gt;pad</title>
<path fill="none" stroke="black" d="M364.428,-353.802C371.896,-342.867 381.53,-328.759 389.84,-316.592"/>
<polygon fill="black" stroke="black" points="392.857,-318.379 395.607,-308.148 387.077,-314.432 392.857,-318.379"/>
<text text-anchor="middle" x="393.5" y="-329.7" font-family="Bitstream Vera Sans" font-size="7.00">has n</text>
</g>
<!-- pad_template -->
<g id="node12" class="node"><title>pad_template</title>
<a xlink:href="GstPadTemplate.html" xlink:title="pad template" target="_top">
<polygon fill="#eeeeee" stroke="black" points="408,-200 332,-200 332,-164 408,-164 408,-200"/>
<text text-anchor="middle" x="370" y="-179.9" font-family="Bitstream Vera Sans" font-size="9.00">pad template</text>
</a>
</g>
<!-- element&#45;&gt;pad_template -->
<g id="edge10" class="edge"><title>element&#45;&gt;pad_template</title>
<path fill="none" stroke="black" d="M351.223,-353.883C350.585,-333.81 350.187,-300.509 353,-272 355.056,-251.164 359.494,-227.952 363.32,-210.321"/>
<polygon fill="black" stroke="black" points="366.831,-210.658 365.597,-200.135 360,-209.131 366.831,-210.658"/>
<text text-anchor="middle" x="362.5" y="-288.7" font-family="Bitstream Vera Sans" font-size="7.00">has n</text>
</g>
<!-- element&#45;&gt;query -->
<g id="edge30" class="edge"><title>element&#45;&gt;query</title>
<path fill="none" stroke="black" d="M379.163,-369.547C418.642,-365.456 493.837,-355.672 555,-336 575.337,-329.459 596.881,-319.446 614.396,-310.431"/>
<polygon fill="black" stroke="black" points="616.455,-313.303 623.679,-305.553 613.198,-307.106 616.455,-313.303"/>
<text text-anchor="middle" x="594" y="-329.7" font-family="Bitstream Vera Sans" font-size="7.00">answers</text>
</g>
<!-- plugin_feature -->
<g id="node15" class="node"><title>plugin_feature</title>
<a xlink:href="GstPluginFeature.html" xlink:title="plugin feature" target="_top">
<polygon fill="#eeeeee" stroke="black" points="160,-200 82,-200 82,-164 160,-164 160,-200"/>
<text text-anchor="middle" x="121" y="-179.9" font-family="Bitstream Vera Sans" font-size="9.00">plugin feature</text>
</a>
</g>
<!-- element_factory&#45;&gt;plugin_feature -->
<g id="edge44" class="edge"><title>element_factory&#45;&gt;plugin_feature</title>
<path fill="none" stroke="black" d="M240.065,-271.923C216.246,-253.934 179.538,-226.21 153.178,-206.302"/>
<polygon fill="black" stroke="black" points="155.102,-203.37 145.013,-200.136 150.884,-208.955 155.102,-203.37"/>
<text text-anchor="middle" x="220" y="-234.7" font-family="Bitstream Vera Sans" font-size="7.00">is&#45;a</text>
</g>
<!-- pad&#45;&gt;caps -->
<g id="edge16" class="edge"><title>pad&#45;&gt;caps</title>
<path fill="none" stroke="black" d="M421.372,-271.743C424.742,-266.285 427.975,-260.119 430,-254 443.959,-211.822 445.721,-159.821 445.222,-128.323"/>
<polygon fill="black" stroke="black" points="448.715,-127.996 444.968,-118.086 441.717,-128.17 448.715,-127.996"/>
<text text-anchor="middle" x="454.5" y="-180.7" font-family="Bitstream Vera Sans" font-size="7.00">has n</text>
</g>
<!-- pad&#45;&gt;pad_template -->
<g id="edge26" class="edge"><title>pad&#45;&gt;pad_template</title>
<path fill="none" stroke="black" d="M389.51,-271.974C385.027,-266.612 380.742,-260.437 378,-254 372.205,-240.396 370.046,-224.101 369.404,-210.457"/>
<polygon fill="black" stroke="black" points="372.898,-210.104 369.175,-200.184 365.899,-210.26 372.898,-210.104"/>
<text text-anchor="middle" x="404" y="-234.7" font-family="Bitstream Vera Sans" font-size="7.00">is created from</text>
</g>
<!-- pad_template&#45;&gt;caps -->
<g id="edge18" class="edge"><title>pad_template&#45;&gt;caps</title>
<path fill="none" stroke="black" d="M386.301,-163.593C393.797,-155.159 402.822,-145.047 411,-136 414.024,-132.655 417.216,-129.145 420.375,-125.685"/>
<polygon fill="black" stroke="black" points="422.993,-128.009 427.162,-118.269 417.829,-123.283 422.993,-128.009"/>
<text text-anchor="middle" x="420.5" y="-139.7" font-family="Bitstream Vera Sans" font-size="7.00">has n</text>
</g>
<!-- pipeline&#45;&gt;bin -->
<g id="edge4" class="edge"><title>pipeline&#45;&gt;bin</title>
<path fill="none" stroke="black" d="M250.086,-517.802C262,-506.442 277.504,-491.659 290.588,-479.183"/>
<polygon fill="black" stroke="black" points="293.145,-481.581 297.967,-472.148 288.314,-476.515 293.145,-481.581"/>
<text text-anchor="middle" x="286" y="-493.7" font-family="Bitstream Vera Sans" font-size="7.00">is&#45;a</text>
</g>
<!-- pipeline&#45;&gt;bus -->
<g id="edge6" class="edge"><title>pipeline&#45;&gt;bus</title>
<path fill="none" stroke="black" d="M203.831,-533.469C178.884,-529.849 142.221,-521.096 118,-500 112.439,-495.156 108.167,-488.593 104.935,-481.943"/>
<polygon fill="black" stroke="black" points="108.001,-480.203 100.913,-472.327 101.543,-482.903 108.001,-480.203"/>
<text text-anchor="middle" x="127.5" y="-493.7" font-family="Bitstream Vera Sans" font-size="7.00">has 1</text>
</g>
<!-- pipeline&#45;&gt;clock -->
<g id="edge8" class="edge"><title>pipeline&#45;&gt;clock</title>
<path fill="none" stroke="black" d="M223.26,-517.973C208.906,-483.448 178.651,-405.264 168,-336 167.125,-330.311 167.28,-324.226 167.958,-318.405"/>
<polygon fill="black" stroke="black" points="171.441,-318.797 169.636,-308.357 164.537,-317.644 171.441,-318.797"/>
<text text-anchor="middle" x="197.5" y="-411.7" font-family="Bitstream Vera Sans" font-size="7.00">has 1</text>
</g>
<!-- plugin -->
<g id="node14" class="node"><title>plugin</title>
<a xlink:href="GstPlugin.html" xlink:title="plugin" target="_top">
<polygon fill="#eeeeee" stroke="black" points="54,-308 2.13163e-14,-308 0,-272 54,-272 54,-308"/>
<text text-anchor="middle" x="27" y="-287.9" font-family="Bitstream Vera Sans" font-size="9.00">plugin</text>
</a>
</g>
<!-- plugin&#45;&gt;plugin_feature -->
<g id="edge42" class="edge"><title>plugin&#45;&gt;plugin_feature</title>
<path fill="none" stroke="black" d="M42.9458,-271.679C58.2302,-254.119 81.4452,-227.446 98.5869,-207.751"/>
<polygon fill="black" stroke="black" points="101.364,-209.891 105.29,-200.05 96.0843,-205.295 101.364,-209.891"/>
<text text-anchor="middle" x="97.5" y="-234.7" font-family="Bitstream Vera Sans" font-size="7.00">has n</text>
</g>
<!-- registry -->
<g id="node17" class="node"><title>registry</title>
<a xlink:href="GstRegistry.html" xlink:title="registry" target="_top">
<polygon fill="#eeeeee" stroke="black" points="54,-390 2.13163e-14,-390 0,-354 54,-354 54,-390"/>
<text text-anchor="middle" x="27" y="-369.9" font-family="Bitstream Vera Sans" font-size="9.00">registry</text>
</a>
</g>
<!-- registry&#45;&gt;plugin -->
<g id="edge40" class="edge"><title>registry&#45;&gt;plugin</title>
<path fill="none" stroke="black" d="M27,-353.802C27,-343.398 27,-330.122 27,-318.377"/>
<polygon fill="black" stroke="black" points="30.5001,-318.148 27,-308.148 23.5001,-318.148 30.5001,-318.148"/>
<text text-anchor="middle" x="36.5" y="-329.7" font-family="Bitstream Vera Sans" font-size="7.00">has n</text>
</g>
</g>
</svg>
